<svg width="433" height="73" viewBox="0 0 433 73" fill="none" xmlns="http://www.w3.org/2000/svg">
<path d="M0.4 72V-2.86102e-06H12V72H0.4ZM28.4438 72V20.9H40.0438V72H28.4438ZM28.1438 9.4V-2.86102e-06H40.3438V9.4H28.1438ZM81.7594 73C74.226 73 68.4927 69.9667 64.5594 63.9L60.5594 72H56.2594V-2.86102e-06H67.8594V27.2C69.1927 25.2667 71.126 23.5667 73.6594 22.1C76.2594 20.6333 79.2927 19.9 82.7594 19.9C86.426 19.9 89.7594 20.7667 92.7594 22.5C95.826 24.1667 98.2594 26.8 100.059 30.4C101.859 33.9333 102.759 38.5 102.759 44.1V46.4C102.759 52.5333 101.793 57.5667 99.8594 61.5C97.9927 65.4333 95.4594 68.3333 92.2594 70.2C89.126 72.0667 85.626 73 81.7594 73ZM79.4594 65.1C81.5927 65.1 83.4927 64.5667 85.1594 63.5C86.826 62.4333 88.126 60.7667 89.0594 58.5C90.0594 56.2333 90.5594 53.2667 90.5594 49.6V42.5C90.5594 39.2333 90.0927 36.5333 89.1594 34.4C88.226 32.2667 86.9594 30.6667 85.3594 29.6C83.7594 28.5333 81.8927 28 79.7594 28C77.626 28 75.6594 28.5333 73.8594 29.6C72.0594 30.6667 70.5927 32.3 69.4594 34.5C68.3927 36.6333 67.8594 39.3333 67.8594 42.6V49.7C67.8594 53.3667 68.3594 56.3333 69.3594 58.6C70.426 60.8667 71.826 62.5333 73.5594 63.6C75.3594 64.6 77.326 65.1 79.4594 65.1Z" fill="#00458A"/>
<path d="M138.041 73C132.775 73 128.075 72.0333 123.941 70.1C119.808 68.1667 116.541 65.3333 114.141 61.6C111.808 57.8667 110.641 53.3333 110.641 48V44.9C110.641 39.5667 111.808 35.0333 114.141 31.3C116.475 27.5667 119.708 24.7333 123.841 22.8C127.975 20.8667 132.675 19.9 137.941 19.9H140.441C145.708 19.9 150.175 20.9 153.841 22.9C157.508 24.9 160.308 27.6333 162.241 31.1C164.175 34.5 165.141 38.4333 165.141 42.9V49.1H131.841C131.841 51.2333 132.008 53.2 132.341 55C132.741 56.8 133.441 58.2333 134.441 59.3C135.441 60.3667 136.941 60.9 138.941 60.9C140.741 60.9 142.208 60.5667 143.341 59.9C144.475 59.2333 145.308 58.3 145.841 57.1C146.441 55.8333 146.741 54.4 146.741 52.8H165.041C165.041 56.5333 164.008 59.9333 161.941 63C159.875 66.0667 156.941 68.5 153.141 70.3C149.341 72.1 144.808 73 139.541 73H138.041ZM131.841 40.4H145.641C145.641 37.4667 144.975 35.3333 143.641 34C142.375 32.6667 140.741 32 138.741 32C136.675 32 135.008 32.7333 133.741 34.2C132.475 35.6 131.841 37.6667 131.841 40.4ZM173 72V20.9H187.8L189.9 28.3C191.833 25.7667 193.9 23.7333 196.1 22.2C198.3 20.6667 201.267 19.9 205 19.9C208.333 19.9 211.2 20.5 213.6 21.7C216.067 22.8333 218.033 24.8333 219.5 27.7C221.233 24.7667 223.3 22.7333 225.7 21.6C228.1 20.4667 230.9 19.9 234.1 19.9C237.5 19.9 240.4 20.5667 242.8 21.9C245.267 23.1667 247.133 24.9333 248.4 27.2C249.733 29.4 250.4 31.9667 250.4 34.9V72H231V39.6C231 37.9333 230.533 36.6 229.6 35.6C228.667 34.6 227.533 34.1 226.2 34.1C225.333 34.1 224.533 34.3333 223.8 34.8C223.067 35.2667 222.467 35.9 222 36.7C221.6 37.5 221.4 38.4667 221.4 39.6V72H202V39.6C202 37.9333 201.533 36.6 200.6 35.6C199.667 34.6 198.533 34.1 197.2 34.1C196.333 34.1 195.533 34.3333 194.8 34.8C194.067 35.2667 193.467 35.9 193 36.7C192.6 37.5 192.4 38.4667 192.4 39.6V72H173ZM290.709 73C283.509 73 277.909 70.1667 273.909 64.5L267.109 72H260.109V-2.86102e-06H279.909V26.2C281.576 24.2 283.476 22.6667 285.609 21.6C287.743 20.4667 290.443 19.9 293.709 19.9C297.309 19.9 300.609 20.7667 303.609 22.5C306.609 24.2333 309.009 26.9333 310.809 30.6C312.609 34.2667 313.509 39.0333 313.509 44.9V47C313.509 52.8 312.443 57.6333 310.309 61.5C308.176 65.3667 305.376 68.2667 301.909 70.2C298.443 72.0667 294.709 73 290.709 73ZM286.109 60.9C287.309 60.9 288.376 60.6 289.309 60C290.243 59.3333 290.976 58.4667 291.509 57.4C292.043 56.3333 292.309 55.1667 292.309 53.9V39.4C292.309 38.0667 292.043 36.9 291.509 35.9C290.976 34.8333 290.243 34 289.309 33.4C288.376 32.7333 287.309 32.4 286.109 32.4C284.976 32.4 283.909 32.7333 282.909 33.4C281.976 34 281.243 34.8333 280.709 35.9C280.176 36.9 279.909 38.0667 279.909 39.4V53.9C279.909 55.1667 280.176 56.3333 280.709 57.4C281.243 58.4667 281.976 59.3333 282.909 60C283.909 60.6 284.976 60.9 286.109 60.9ZM346.245 73C340.978 73 336.278 72.0333 332.145 70.1C328.011 68.1667 324.745 65.3333 322.345 61.6C320.011 57.8667 318.845 53.3333 318.845 48V44.9C318.845 39.5667 320.011 35.0333 322.345 31.3C324.678 27.5667 327.911 24.7333 332.045 22.8C336.178 20.8667 340.878 19.9 346.145 19.9H348.645C353.911 19.9 358.378 20.9 362.045 22.9C365.711 24.9 368.511 27.6333 370.445 31.1C372.378 34.5 373.345 38.4333 373.345 42.9V49.1H340.045C340.045 51.2333 340.211 53.2 340.545 55C340.945 56.8 341.645 58.2333 342.645 59.3C343.645 60.3667 345.145 60.9 347.145 60.9C348.945 60.9 350.411 60.5667 351.545 59.9C352.678 59.2333 353.511 58.3 354.045 57.1C354.645 55.8333 354.945 54.4 354.945 52.8H373.245C373.245 56.5333 372.211 59.9333 370.145 63C368.078 66.0667 365.145 68.5 361.345 70.3C357.545 72.1 353.011 73 347.745 73H346.245ZM340.045 40.4H353.845C353.845 37.4667 353.178 35.3333 351.845 34C350.578 32.6667 348.945 32 346.945 32C344.878 32 343.211 32.7333 341.945 34.2C340.678 35.6 340.045 37.6667 340.045 40.4ZM399.003 73C394.603 73 390.903 72.0667 387.903 70.2C384.903 68.2667 382.636 65.3667 381.103 61.5C379.57 57.6333 378.803 52.8 378.803 47V45.9C378.803 40.0333 379.736 35.2 381.603 31.4C383.536 27.5333 386.07 24.6667 389.203 22.8C392.336 20.8667 395.67 19.9 399.203 19.9C402.736 19.9 405.536 20.5333 407.603 21.8C409.736 23 411.336 24.4667 412.403 26.2V-2.86102e-06H432.203V72H416.403L414.603 65.7C413.203 67.4333 411.236 69.1 408.703 70.7C406.17 72.2333 402.936 73 399.003 73ZM406.203 60.9C407.403 60.9 408.47 60.6 409.403 60C410.336 59.3333 411.07 58.4667 411.603 57.4C412.136 56.3333 412.403 55.1667 412.403 53.9V39.4C412.403 38.0667 412.136 36.9 411.603 35.9C411.07 34.8333 410.336 34 409.403 33.4C408.47 32.7333 407.403 32.4 406.203 32.4C404.47 32.4 403.003 33.1 401.803 34.5C400.603 35.8333 400.003 37.4667 400.003 39.4V53.9C400.003 55.1667 400.27 56.3333 400.803 57.4C401.336 58.4667 402.07 59.3333 403.003 60C404.003 60.6 405.07 60.9 406.203 60.9Z" fill="#0080FF"/>
</svg>
