<svg width="467" height="136" viewBox="0 0 467 136" fill="none" xmlns="http://www.w3.org/2000/svg">
<path d="M18.7809 102V30H30.3809V102H18.7809ZM46.8246 102V50.9H58.4246V102H46.8246ZM46.5246 39.4V30H58.7246V39.4H46.5246ZM100.14 103C92.6069 103 86.8736 99.9667 82.9402 93.9L78.9402 102H74.6402V30H86.2402V57.2C87.5736 55.2667 89.5069 53.5667 92.0402 52.1C94.6402 50.6333 97.6736 49.9 101.14 49.9C104.807 49.9 108.14 50.7667 111.14 52.5C114.207 54.1667 116.64 56.8 118.44 60.4C120.24 63.9333 121.14 68.5 121.14 74.1V76.4C121.14 82.5333 120.174 87.5667 118.24 91.5C116.374 95.4333 113.84 98.3333 110.64 100.2C107.507 102.067 104.007 103 100.14 103ZM97.8402 95.1C99.9736 95.1 101.874 94.5667 103.54 93.5C105.207 92.4333 106.507 90.7667 107.44 88.5C108.44 86.2333 108.94 83.2667 108.94 79.6V72.5C108.94 69.2333 108.474 66.5333 107.54 64.4C106.607 62.2667 105.34 60.6667 103.74 59.6C102.14 58.5333 100.274 58 98.1402 58C96.0069 58 94.0402 58.5333 92.2402 59.6C90.4402 60.6667 88.9736 62.3 87.8402 64.5C86.7736 66.6333 86.2402 69.3333 86.2402 72.6V79.7C86.2402 83.3667 86.7402 86.3333 87.7402 88.6C88.8069 90.8667 90.2069 92.5333 91.9402 93.6C93.7402 94.6 95.7069 95.1 97.8402 95.1Z" fill="#00458A"/>
<path d="M156.422 103C151.156 103 146.456 102.033 142.322 100.1C138.189 98.1667 134.922 95.3333 132.522 91.6C130.189 87.8667 129.022 83.3333 129.022 78V74.9C129.022 69.5667 130.189 65.0333 132.522 61.3C134.856 57.5667 138.089 54.7333 142.222 52.8C146.356 50.8667 151.056 49.9 156.322 49.9H158.822C164.089 49.9 168.556 50.9 172.222 52.9C175.889 54.9 178.689 57.6333 180.622 61.1C182.556 64.5 183.522 68.4333 183.522 72.9V79.1H150.222C150.222 81.2333 150.389 83.2 150.722 85C151.122 86.8 151.822 88.2333 152.822 89.3C153.822 90.3667 155.322 90.9 157.322 90.9C159.122 90.9 160.589 90.5667 161.722 89.9C162.856 89.2333 163.689 88.3 164.222 87.1C164.822 85.8333 165.122 84.4 165.122 82.8H183.422C183.422 86.5333 182.389 89.9333 180.322 93C178.256 96.0667 175.322 98.5 171.522 100.3C167.722 102.1 163.189 103 157.922 103H156.422ZM150.222 70.4H164.022C164.022 67.4667 163.356 65.3333 162.022 64C160.756 62.6667 159.122 62 157.122 62C155.056 62 153.389 62.7333 152.122 64.2C150.856 65.6 150.222 67.6667 150.222 70.4ZM191.381 102V50.9H206.181L208.281 58.3C210.214 55.7667 212.281 53.7333 214.481 52.2C216.681 50.6667 219.648 49.9 223.381 49.9C226.714 49.9 229.581 50.5 231.981 51.7C234.448 52.8333 236.414 54.8333 237.881 57.7C239.614 54.7667 241.681 52.7333 244.081 51.6C246.481 50.4667 249.281 49.9 252.481 49.9C255.881 49.9 258.781 50.5667 261.181 51.9C263.648 53.1667 265.514 54.9333 266.781 57.2C268.114 59.4 268.781 61.9667 268.781 64.9V102H249.381V69.6C249.381 67.9333 248.914 66.6 247.981 65.6C247.048 64.6 245.914 64.1 244.581 64.1C243.714 64.1 242.914 64.3333 242.181 64.8C241.448 65.2667 240.848 65.9 240.381 66.7C239.981 67.5 239.781 68.4667 239.781 69.6V102H220.381V69.6C220.381 67.9333 219.914 66.6 218.981 65.6C218.048 64.6 216.914 64.1 215.581 64.1C214.714 64.1 213.914 64.3333 213.181 64.8C212.448 65.2667 211.848 65.9 211.381 66.7C210.981 67.5 210.781 68.4667 210.781 69.6V102H191.381ZM309.09 103C301.89 103 296.29 100.167 292.29 94.5L285.49 102H278.49V30H298.29V56.2C299.957 54.2 301.857 52.6667 303.99 51.6C306.124 50.4667 308.824 49.9 312.09 49.9C315.69 49.9 318.99 50.7667 321.99 52.5C324.99 54.2333 327.39 56.9333 329.19 60.6C330.99 64.2667 331.89 69.0333 331.89 74.9V77C331.89 82.8 330.824 87.6333 328.69 91.5C326.557 95.3667 323.757 98.2667 320.29 100.2C316.824 102.067 313.09 103 309.09 103ZM304.49 90.9C305.69 90.9 306.757 90.6 307.69 90C308.624 89.3333 309.357 88.4667 309.89 87.4C310.424 86.3333 310.69 85.1667 310.69 83.9V69.4C310.69 68.0667 310.424 66.9 309.89 65.9C309.357 64.8333 308.624 64 307.69 63.4C306.757 62.7333 305.69 62.4 304.49 62.4C303.357 62.4 302.29 62.7333 301.29 63.4C300.357 64 299.624 64.8333 299.09 65.9C298.557 66.9 298.29 68.0667 298.29 69.4V83.9C298.29 85.1667 298.557 86.3333 299.09 87.4C299.624 88.4667 300.357 89.3333 301.29 90C302.29 90.6 303.357 90.9 304.49 90.9ZM364.625 103C359.359 103 354.659 102.033 350.525 100.1C346.392 98.1667 343.125 95.3333 340.725 91.6C338.392 87.8667 337.225 83.3333 337.225 78V74.9C337.225 69.5667 338.392 65.0333 340.725 61.3C343.059 57.5667 346.292 54.7333 350.425 52.8C354.559 50.8667 359.259 49.9 364.525 49.9H367.025C372.292 49.9 376.759 50.9 380.425 52.9C384.092 54.9 386.892 57.6333 388.825 61.1C390.759 64.5 391.725 68.4333 391.725 72.9V79.1H358.425C358.425 81.2333 358.592 83.2 358.925 85C359.325 86.8 360.025 88.2333 361.025 89.3C362.025 90.3667 363.525 90.9 365.525 90.9C367.325 90.9 368.792 90.5667 369.925 89.9C371.059 89.2333 371.892 88.3 372.425 87.1C373.025 85.8333 373.325 84.4 373.325 82.8H391.625C391.625 86.5333 390.592 89.9333 388.525 93C386.459 96.0667 383.525 98.5 379.725 100.3C375.925 102.1 371.392 103 366.125 103H364.625ZM358.425 70.4H372.225C372.225 67.4667 371.559 65.3333 370.225 64C368.959 62.6667 367.325 62 365.325 62C363.259 62 361.592 62.7333 360.325 64.2C359.059 65.6 358.425 67.6667 358.425 70.4ZM417.384 103C412.984 103 409.284 102.067 406.284 100.2C403.284 98.2667 401.017 95.3667 399.484 91.5C397.951 87.6333 397.184 82.8 397.184 77V75.9C397.184 70.0333 398.117 65.2 399.984 61.4C401.917 57.5333 404.451 54.6667 407.584 52.8C410.717 50.8667 414.051 49.9 417.584 49.9C421.117 49.9 423.917 50.5333 425.984 51.8C428.117 53 429.717 54.4667 430.784 56.2V30H450.584V102H434.784L432.984 95.7C431.584 97.4333 429.617 99.1 427.084 100.7C424.551 102.233 421.317 103 417.384 103ZM424.584 90.9C425.784 90.9 426.851 90.6 427.784 90C428.717 89.3333 429.451 88.4667 429.984 87.4C430.517 86.3333 430.784 85.1667 430.784 83.9V69.4C430.784 68.0667 430.517 66.9 429.984 65.9C429.451 64.8333 428.717 64 427.784 63.4C426.851 62.7333 425.784 62.4 424.584 62.4C422.851 62.4 421.384 63.1 420.184 64.5C418.984 65.8333 418.384 67.4667 418.384 69.4V83.9C418.384 85.1667 418.651 86.3333 419.184 87.4C419.717 88.4667 420.451 89.3333 421.384 90C422.384 90.6 423.451 90.9 424.584 90.9Z" fill="#0080FF"/>
</svg>
